<svg xmlns="http://www.w3.org/2000/svg" width="420" height="720" viewBox="0 0 420 720">
  <rect width="420" height="720" fill="#050b16" />
  <rect x="14" y="14" width="392" height="692" rx="28" fill="#071222" stroke="#2b3948" stroke-width="2" />

  <text x="40" y="60" fill="#fff" font-size="17" font-family="Segoe UI, Arial">Evidence capture</text>
  <text x="40" y="82" fill="#94a3b8" font-size="12" font-family="Segoe UI, Arial">Meter HZ-01-001 &#8226; Alert #1042</text>

  <g transform="translate(40,110)">
    <rect width="340" height="220" rx="10" fill="#0b1220" stroke="#334155" />
    <rect x="20" y="20" width="300" height="180" rx="6" fill="#0f172a" stroke="#1f2937" />
    <path d="M120 130 l40 -50 l30 30 l50 -60 l60 80 z" fill="#334155" />
    <circle cx="150" cy="90" r="12" fill="#475569" />
  </g>

  <g transform="translate(40,350)">
    <rect width="340" height="46" rx="8" fill="#0b1220" stroke="#334155" />
    <text x="16" y="29" fill="#e6eef8" font-size="13" font-family="Segoe UI, Arial">GPS: 12.9716, 77.5946</text>
  </g>
  <g transform="translate(40,406)">
    <rect width="340" height="46" rx="8" fill="#0b1220" stroke="#334155" />
    <text x="16" y="29" fill="#e6eef8" font-size="13" font-family="Segoe UI, Arial">Timestamp: on capture</text>
  </g>
  <g transform="translate(40,462)">
    <rect width="340" height="70" rx="8" fill="#0b1220" stroke="#334155" />
    <text x="16" y="26" fill="#93c5fd" font-size="12" font-family="Segoe UI, Arial">Notes</text>
    <text x="16" y="48" fill="#94a3b8" font-size="12" font-family="Segoe UI, Arial">Meter seal broken, bypass wire visible</text>
  </g>

  <g transform="translate(40,556)">
    <rect width="340" height="48" rx="24" fill="#34d399" />
    <text x="170" y="30" fill="#052e21" font-size="14" font-family="Segoe UI, Arial" text-anchor="middle" font-weight="bold">Submit evidence</text>
  </g>

  <text x="40" y="660" fill="#64748b" font-size="11" font-family="Segoe UI, Arial">Placeholder image — replace with a real mobile-capture screenshot.</text>
</svg>
